<svg version="1.1" viewBox="0.0 0.0 300.0 300.0" fill="none" stroke="none" stroke-linecap="square" stroke-miterlimit="10" xmlns:xlink="http://www.w3.org/1999/xlink" xmlns="http://www.w3.org/2000/svg"><clipPath id="p.0"><path d="m0 0l300.0 0l0 300.0l-300.0 0l0 -300.0z" clip-rule="nonzero"/></clipPath><g clip-path="url(#p.0)"><path fill="#000000" fill-opacity="0.0" d="m0 0l300.0 0l0 300.0l-300.0 0z" fill-rule="evenodd"/><path fill="#ffbf00" d="m53.251003 32.67706l40.881893 0.03149414l0 234.61417l-40.881893 -0.03149414z" fill-rule="evenodd"/><path fill="#ffbf00" d="m205.48294 267.32285l-40.663727 -234.64568l-42.95832 0l40.663734 234.64568z" fill-rule="evenodd"/><path fill="#ffbf00" d="m246.74803 32.677166l-40.663727 234.64568l-42.958313 0l40.663727 -234.64568z" fill-rule="evenodd"/><path fill="#e800ff" fill-opacity="0.1091" d="m246.24934 32.66142l-40.430527 234.64568l-24.766327 0l40.430527 -234.64568z" fill-rule="evenodd"/><path fill="#e800ff" fill-opacity="0.1091" d="m85.78927 32.677166l8.346458 0l0 234.61418l-8.346458 0z" fill-rule="evenodd"/><path fill="#e800ff" fill-opacity="0.1091" d="m53.25197 260.95013l32.53543 0l0 6.362213l-32.53543 0z" fill-rule="evenodd"/></g></svg>